<svg width="64" height="55" viewBox="0 0 64 55" fill="white" xmlns="http://www.w3.org/2000/svg">
  <path d="M27.2375 8.94883L42.5875 23.8191C43.4875 24.691 44 25.8898 44 27.125C44 28.3602 43.4875 29.559 42.5875 30.4309L27.2375 45.3012C26.4375 46.0762 25.3625 46.5 24.2375 46.5C21.9 46.5 20 44.6594 20 42.3949V34.875H4C1.7875 34.875 0 33.1434 0 31V23.25C0 21.1066 1.7875 19.375 4 19.375H20V11.8551C20 9.59062 21.9 7.75 24.2375 7.75C25.3625 7.75 26.4375 8.18594 27.2375 8.94883ZM44 46.5H52C54.2125 46.5 56 44.7684 56 42.625V11.625C56 9.48164 54.2125 7.75 52 7.75H44C41.7875 7.75 40 6.01836 40 3.875C40 1.73164 41.7875 0 44 0H52C58.625 0 64 5.20703 64 11.625V42.625C64 49.043 58.625 54.25 52 54.25H44C41.7875 54.25 40 52.5184 40 50.375C40 48.2316 41.7875 46.5 44 46.5Z" fill="white"/>
</svg>
